<svg xmlns="http://www.w3.org/2000/svg" width="400" height="400"><defs><pattern id="grecaPattern" width="80" height="80" x="0" y="0" patternUnits="userSpaceOnUse"><rect width="80" height="80" fill="#f9fafb"/><g fill="none" stroke="#e5e7eb" stroke-linecap="square" stroke-width="2"><path d="M 0,20 L 10,20 L 10,10 L 20,10 L 20,20 L 30,20 L 30,10 L 40,10 L 40,20 L 50,20 L 50,10 L 60,10 L 60,20 L 70,20 L 70,10 L 80,10"/><path d="M 0,60 L 10,60 L 10,70 L 20,70 L 20,60 L 30,60 L 30,70 L 40,70 L 40,60 L 50,60 L 50,70 L 60,70 L 60,60 L 70,60 L 70,70 L 80,70"/></g><g fill="#e5e7eb" opacity=".5"><circle cx="15" cy="40" r="2"/><circle cx="35" cy="40" r="2"/><circle cx="55" cy="40" r="2"/><circle cx="75" cy="40" r="2"/></g><g fill="none" stroke="#e5e7eb" stroke-width="1" opacity=".4"><line x1="20" x2="20" y1="20" y2="30"/><line x1="40" x2="40" y1="20" y2="30"/><line x1="60" x2="60" y1="20" y2="30"/><line x1="20" x2="20" y1="50" y2="60"/><line x1="40" x2="40" y1="50" y2="60"/><line x1="60" x2="60" y1="50" y2="60"/></g></pattern></defs><rect width="400" height="400" fill="url(#grecaPattern)"/></svg>