<svg xmlns="http://www.w3.org/2000/svg" width="400" height="400"><defs><pattern id="starsPattern" width="200" height="200" x="0" y="0" patternUnits="userSpaceOnUse"><rect width="200" height="200" fill="transparent"/><g fill="#e5e7eb"><path d="M 30,40 L 32,38 L 34,40 L 32,42 Z" opacity=".6"><animate attributeName="opacity" dur="3s" repeatCount="indefinite" values="0.3;0.8;0.3"/></path><path d="M 140,70 L 142,68 L 144,70 L 142,72 Z" opacity=".5"><animate attributeName="opacity" begin="0.5s" dur="2.5s" repeatCount="indefinite" values="0.4;0.9;0.4"/></path><path d="M 80,150 L 82,148 L 84,150 L 82,152 Z" opacity=".7"><animate attributeName="opacity" begin="1s" dur="2s" repeatCount="indefinite" values="0.3;0.7;0.3"/></path><path d="M 160,130 L 162,128 L 164,130 L 162,132 Z" opacity=".4"><animate attributeName="opacity" begin="1.5s" dur="4s" repeatCount="indefinite" values="0.2;0.6;0.2"/></path></g><g fill="#d1d5db"><circle cx="100" cy="30" r="1.5" opacity=".5"><animate attributeName="opacity" begin="0.3s" dur="3.5s" repeatCount="indefinite" values="0.3;0.7;0.3"/></circle><circle cx="50" cy="90" r="1.5" opacity=".6"><animate attributeName="opacity" begin="0.8s" dur="2.8s" repeatCount="indefinite" values="0.4;0.8;0.4"/></circle><circle cx="170" cy="50" r="1.5" opacity=".4"><animate attributeName="opacity" begin="1.2s" dur="3.2s" repeatCount="indefinite" values="0.2;0.6;0.2"/></circle><circle cx="120" cy="160" r="1.5" opacity=".5"><animate attributeName="opacity" begin="0.6s" dur="2.6s" repeatCount="indefinite" values="0.3;0.7;0.3"/></circle><circle cx="20" cy="120" r="1.5" opacity=".6"><animate attributeName="opacity" begin="1.8s" dur="3s" repeatCount="indefinite" values="0.4;0.9;0.4"/></circle></g><g fill="#e5e7eb"><circle cx="65" cy="25" r="1" opacity=".4"><animate attributeName="opacity" begin="0.2s" dur="4.5s" repeatCount="indefinite" values="0.2;0.5;0.2"/></circle><circle cx="150" cy="95" r="1" opacity=".3"><animate attributeName="opacity" begin="1s" dur="3.8s" repeatCount="indefinite" values="0.1;0.4;0.1"/></circle><circle cx="35" cy="165" r="1" opacity=".5"><animate attributeName="opacity" begin="0.4s" dur="3.3s" repeatCount="indefinite" values="0.3;0.6;0.3"/></circle><circle cx="180" cy="20" r="1" opacity=".3"><animate attributeName="opacity" begin="1.5s" dur="4s" repeatCount="indefinite" values="0.2;0.5;0.2"/></circle><circle cx="110" cy="110" r="1" opacity=".4"><animate attributeName="opacity" begin="0.9s" dur="3.6s" repeatCount="indefinite" values="0.2;0.6;0.2"/></circle><circle cx="190" cy="170" r="1" opacity=".3"><animate attributeName="opacity" begin="2s" dur="4.2s" repeatCount="indefinite" values="0.1;0.4;0.1"/></circle></g></pattern></defs><rect width="400" height="400" fill="url(#starsPattern)"/></svg>